<svg width="30" height="16" viewBox="0 0 30 16" fill="none" xmlns="http://www.w3.org/2000/svg">
<path fill-rule="evenodd" clip-rule="evenodd" d="M30 8C30 7.44772 29.5523 7 29 7H1C0.447716 7 0 7.44772 0 8C0 8.55228 0.447716 9 1 9H29C29.5523 9 30 8.55228 30 8Z" fill="#161C26"/>
<path fill-rule="evenodd" clip-rule="evenodd" d="M6.70711 2.29289C6.31658 1.90237 5.68342 1.90237 5.29289 2.29289L0.292893 7.29289C-0.097631 7.68342 -0.097631 8.31658 0.292893 8.70711L5.29289 13.7071C5.68342 14.0976 6.31658 14.0976 6.70711 13.7071C7.09763 13.3166 7.09763 12.6834 6.70711 12.2929L2.41421 8L6.70711 3.70711C7.09763 3.31658 7.09763 2.68342 6.70711 2.29289Z" fill="#161C26"/>
</svg>
