<svg width="30" height="16" viewBox="0 0 30 16" fill="none" xmlns="http://www.w3.org/2000/svg">
<path fill-rule="evenodd" clip-rule="evenodd" d="M0 8C0 7.44772 0.447715 7 1 7H29C29.5523 7 30 7.44772 30 8C30 8.55228 29.5523 9 29 9H1C0.447715 9 0 8.55228 0 8Z" fill="#161C26"/>
<path fill-rule="evenodd" clip-rule="evenodd" d="M23.2929 2.29289C23.6834 1.90237 24.3166 1.90237 24.7071 2.29289L29.7071 7.29289C30.0976 7.68342 30.0976 8.31658 29.7071 8.70711L24.7071 13.7071C24.3166 14.0976 23.6834 14.0976 23.2929 13.7071C22.9024 13.3166 22.9024 12.6834 23.2929 12.2929L27.5858 8L23.2929 3.70711C22.9024 3.31658 22.9024 2.68342 23.2929 2.29289Z" fill="#161C26"/>
</svg>
