<svg width="19" height="19" viewBox="0 0 19 19" fill="none" xmlns="http://www.w3.org/2000/svg">
<path fill-rule="evenodd" clip-rule="evenodd" d="M2.12499 8.68746C2.12499 5.06311 5.06311 2.12499 8.68746 2.12499C12.3118 2.12499 15.2499 5.06311 15.2499 8.68746C15.2499 10.452 14.5535 12.0539 13.4205 13.2332C13.3851 13.2598 13.3511 13.2891 13.3189 13.3214C13.2868 13.3535 13.2575 13.3873 13.231 13.4226C12.0519 14.5544 10.4509 15.2499 8.68746 15.2499C5.06311 15.2499 2.12499 12.3118 2.12499 8.68746ZM13.9527 15.2809C12.5094 16.4349 10.679 17.1249 8.68746 17.1249C4.02758 17.1249 0.25 13.3473 0.25 8.68746C0.25 4.02758 4.02758 0.25 8.68746 0.25C13.3473 0.25 17.1249 4.02758 17.1249 8.68746C17.1249 10.6803 16.434 12.5117 15.2787 13.9554L18.7228 17.3995C19.089 17.7656 19.089 18.3592 18.7228 18.7253C18.3567 19.0914 17.7631 19.0914 17.397 18.7253L13.9527 15.2809Z" fill="#161C26"/>
</svg>
