<svg width="16" height="16" viewBox="0 0 16 16" fill="var(--white)" xmlns="http://www.w3.org/2000/svg">
<path d="M11.4918 8.54683C11.4918 8.84887 11.247 9.09371 10.9449 9.09371H10.4163C10.1142 9.09371 9.86941 8.84887 9.86941 8.54683C9.86941 8.2448 10.1142 7.99996 10.4163 7.99996H10.9449C11.247 7.99996 11.4918 8.2448 11.4918 8.54683ZM8.51136 7.99996H4.77439C4.47236 7.99996 4.22752 8.2448 4.22752 8.54683C4.22752 8.84887 4.47236 9.09371 4.77439 9.09371H8.51136C8.8134 9.09371 9.05823 8.84887 9.05823 8.54683C9.05823 8.2448 8.8134 7.99996 8.51136 7.99996ZM11.2275 4.77342H4.77439C4.47236 4.77342 4.22752 5.01825 4.22752 5.32029C4.22752 5.62233 4.47236 5.86716 4.77439 5.86716H11.2275C11.5295 5.86716 11.7744 5.62233 11.7744 5.32029C11.7744 5.01825 11.5295 4.77342 11.2275 4.77342ZM15.0009 3.18749V10.6751C15.0009 11.8813 14.0196 12.8626 12.8134 12.8626H7.13828L5.38386 14.617C4.56251 15.4383 3.15202 14.8501 3.15202 13.6925V12.8623C1.96254 12.8428 1.00098 11.8691 1.00098 10.6751V3.18749C1.00098 1.98131 1.98228 1 3.18846 1H12.8134C14.0196 1 15.0009 1.98131 15.0009 3.18749ZM13.9072 3.18749C13.9072 2.5844 13.4165 2.09374 12.8134 2.09374H3.18846C2.58537 2.09374 2.09472 2.5844 2.09472 3.18749V10.6751C2.09472 11.2782 2.58537 11.7688 3.18846 11.7688C3.77146 11.7688 4.24576 12.2431 4.24576 12.8261V13.6925C4.24576 13.8817 4.47627 13.9778 4.61044 13.8436L6.37555 12.0785C6.57527 11.8788 6.84078 11.7688 7.12318 11.7688H12.8134C13.4165 11.7688 13.9072 11.2782 13.9072 10.6751V3.18749H13.9072Z"/>
</svg>
