<svg width="55" height="16" viewBox="0 0 55 16" fill="none" xmlns="http://www.w3.org/2000/svg">
<path d="M2 2H6V3.8H3.8V12.2H6V14H2V2Z" fill="white"/>
<path d="M11.8385 11.62C11.3785 11.62 10.9551 11.5533 10.5685 11.42C10.1885 11.2867 9.85848 11.08 9.57848 10.8C9.29848 10.5133 9.07848 10.1433 8.91848 9.69C8.76514 9.23667 8.68848 8.69 8.68848 8.05V7.85C8.68848 7.23667 8.76848 6.71333 8.92848 6.28C9.09514 5.84 9.31848 5.48 9.59848 5.2C9.88514 4.92 10.2185 4.71333 10.5985 4.58C10.9851 4.44667 11.3985 4.38 11.8385 4.38C12.2318 4.38 12.6018 4.42667 12.9485 4.52C13.2951 4.61333 13.5985 4.76 13.8585 4.96C14.1251 5.15333 14.3385 5.40333 14.4985 5.71C14.6651 6.01667 14.7618 6.38 14.7885 6.8H13.2285C13.1551 6.4 12.9951 6.10667 12.7485 5.92C12.5018 5.73333 12.1985 5.64 11.8385 5.64C11.6318 5.64 11.4318 5.67667 11.2385 5.75C11.0518 5.82333 10.8851 5.94667 10.7385 6.12C10.5918 6.29333 10.4718 6.52 10.3785 6.8C10.2918 7.08 10.2485 7.43 10.2485 7.85V8.05C10.2485 8.49 10.2951 8.86 10.3885 9.16C10.4818 9.45333 10.6018 9.69 10.7485 9.87C10.9018 10.0433 11.0718 10.17 11.2585 10.25C11.4518 10.3233 11.6451 10.36 11.8385 10.36C12.2185 10.36 12.5318 10.2633 12.7785 10.07C13.0251 9.87 13.1751 9.58 13.2285 9.2H14.7885C14.7551 9.64 14.6585 10.0133 14.4985 10.32C14.3385 10.6267 14.1285 10.8767 13.8685 11.07C13.6085 11.2633 13.3051 11.4033 12.9585 11.49C12.6118 11.5767 12.2385 11.62 11.8385 11.62ZM17.4646 5.74H15.2146V4.5H21.2146V5.74H18.9646V11.5H17.4646V5.74ZM25.388 10.07H22.798L22.268 11.5H20.808L23.408 4.5H24.908L27.508 11.5H25.928L25.388 10.07ZM23.258 8.83H24.938L24.098 6.4L23.258 8.83ZM29.3592 5.74H27.1092V4.5H33.1092V5.74H30.8592V11.5H29.3592V5.74ZM34.1057 4.5H35.6057V7H36.8057C37.279 7 37.6923 7.05333 38.0457 7.16C38.399 7.26667 38.689 7.42 38.9157 7.62C39.149 7.81333 39.3223 8.05 39.4357 8.33C39.549 8.60333 39.6057 8.91 39.6057 9.25C39.6057 9.59 39.549 9.9 39.4357 10.18C39.3223 10.4533 39.149 10.69 38.9157 10.89C38.689 11.0833 38.399 11.2333 38.0457 11.34C37.6923 11.4467 37.279 11.5 36.8057 11.5H34.1057V4.5ZM36.6557 10.26C37.189 10.26 37.5623 10.17 37.7757 9.99C37.9957 9.81 38.1057 9.56333 38.1057 9.25C38.1057 8.93667 37.9957 8.69 37.7757 8.51C37.5623 8.33 37.189 8.24 36.6557 8.24H35.6057V10.26H36.6557ZM41.9984 8.78C41.4984 8.62 41.1251 8.36333 40.8784 8.01C40.6317 7.65667 40.5084 7.23667 40.5084 6.75C40.5084 6.41 40.5651 6.10333 40.6784 5.83C40.7917 5.55 40.9584 5.31333 41.1784 5.12C41.3984 4.92 41.6717 4.76667 41.9984 4.66C42.3317 4.55333 42.7184 4.5 43.1584 4.5H46.0084V11.5H44.5084V8.94H43.3984L41.8484 11.5H40.2084L41.9984 8.78ZM42.0084 6.75C42.0084 6.91667 42.0317 7.06333 42.0784 7.19C42.1251 7.31667 42.2051 7.42333 42.3184 7.51C42.4317 7.59 42.5784 7.65333 42.7584 7.7C42.9451 7.74 43.1784 7.76 43.4584 7.76H44.5084V5.74H43.4584C43.1784 5.74 42.9451 5.76333 42.7584 5.81C42.5784 5.85 42.4317 5.91333 42.3184 6C42.2051 6.08 42.1251 6.18333 42.0784 6.31C42.0317 6.43667 42.0084 6.58333 42.0084 6.75Z" fill="white"/>
<path d="M53 14L49 14L49 12.2L51.2 12.2L51.2 3.8L49 3.8L49 2L53 2L53 14Z" fill="white"/>
</svg>
