<svg width="100" height="16" viewBox="0 0 100 16" fill="none" xmlns="http://www.w3.org/2000/svg">
<rect width="100" height="16" fill="#1698D9"/>
<path d="M2 2H6V3.8H3.8V12.2H6V14H2V2Z" fill="white"/>
<path d="M11.7848 11.62C11.3248 11.62 10.9014 11.5533 10.5148 11.42C10.1348 11.2867 9.80477 11.08 9.52477 10.8C9.24477 10.5133 9.02477 10.1433 8.86477 9.69C8.71143 9.23667 8.63477 8.69 8.63477 8.05V7.85C8.63477 7.23667 8.71477 6.71333 8.87477 6.28C9.04143 5.84 9.26477 5.48 9.54477 5.2C9.83143 4.92 10.1648 4.71333 10.5448 4.58C10.9314 4.44667 11.3448 4.38 11.7848 4.38C12.1781 4.38 12.5481 4.42667 12.8948 4.52C13.2414 4.61333 13.5448 4.76 13.8048 4.96C14.0714 5.15333 14.2848 5.40333 14.4448 5.71C14.6114 6.01667 14.7081 6.38 14.7348 6.8H13.1748C13.1014 6.4 12.9414 6.10667 12.6948 5.92C12.4481 5.73333 12.1448 5.64 11.7848 5.64C11.5781 5.64 11.3781 5.67667 11.1848 5.75C10.9981 5.82333 10.8314 5.94667 10.6848 6.12C10.5381 6.29333 10.4181 6.52 10.3248 6.8C10.2381 7.08 10.1948 7.43 10.1948 7.85V8.05C10.1948 8.49 10.2414 8.86 10.3348 9.16C10.4281 9.45333 10.5481 9.69 10.6948 9.87C10.8481 10.0433 11.0181 10.17 11.2048 10.25C11.3981 10.3233 11.5914 10.36 11.7848 10.36C12.1648 10.36 12.4781 10.2633 12.7248 10.07C12.9714 9.87 13.1214 9.58 13.1748 9.2H14.7348C14.7014 9.64 14.6048 10.0133 14.4448 10.32C14.2848 10.6267 14.0748 10.8767 13.8148 11.07C13.5548 11.2633 13.2514 11.4033 12.9048 11.49C12.5581 11.5767 12.1848 11.62 11.7848 11.62ZM19.6214 10.07H17.0314L16.5014 11.5H15.0414L17.6414 4.5H19.1414L21.7414 11.5H20.1614L19.6214 10.07ZM17.4914 8.83H19.1714L18.3314 6.4L17.4914 8.83ZM22.6457 4.5H24.1457L26.2757 8.44L28.3957 4.5H29.8457V11.5H28.3457V7.05L26.6957 10.1H25.7957L24.1457 7.05V11.5H22.6457V4.5ZM34.4445 11.62C34.0045 11.62 33.5845 11.5533 33.1845 11.42C32.7912 11.2867 32.4412 11.0767 32.1345 10.79C31.8345 10.5033 31.5945 10.1367 31.4145 9.69C31.2345 9.23667 31.1445 8.69 31.1445 8.05V7.85C31.1445 7.23667 31.2345 6.71333 31.4145 6.28C31.5945 5.84 31.8345 5.48 32.1345 5.2C32.4412 4.92 32.7912 4.71333 33.1845 4.58C33.5845 4.44667 34.0045 4.38 34.4445 4.38C34.8845 4.38 35.3012 4.44667 35.6945 4.58C36.0945 4.71333 36.4445 4.92 36.7445 5.2C37.0512 5.48 37.2945 5.84 37.4745 6.28C37.6545 6.71333 37.7445 7.23667 37.7445 7.85V8.05C37.7445 8.69 37.6545 9.23667 37.4745 9.69C37.2945 10.1367 37.0512 10.5033 36.7445 10.79C36.4445 11.0767 36.0945 11.2867 35.6945 11.42C35.3012 11.5533 34.8845 11.62 34.4445 11.62ZM34.4445 10.36C34.6712 10.36 34.8879 10.3233 35.0945 10.25C35.3079 10.17 35.4945 10.04 35.6545 9.86C35.8145 9.68 35.9412 9.44333 36.0345 9.15C36.1345 8.85667 36.1845 8.49 36.1845 8.05V7.85C36.1845 7.43667 36.1345 7.09 36.0345 6.81C35.9412 6.53 35.8145 6.30333 35.6545 6.13C35.4945 5.95667 35.3079 5.83333 35.0945 5.76C34.8879 5.68 34.6712 5.64 34.4445 5.64C34.2179 5.64 33.9979 5.68 33.7845 5.76C33.5779 5.83333 33.3945 5.95667 33.2345 6.13C33.0745 6.30333 32.9445 6.53 32.8445 6.81C32.7512 7.09 32.7045 7.43667 32.7045 7.85V8.05C32.7045 8.49 32.7512 8.85667 32.8445 9.15C32.9445 9.44333 33.0745 9.68 33.2345 9.86C33.3945 10.04 33.5779 10.17 33.7845 10.25C33.9979 10.3233 34.2179 10.36 34.4445 10.36ZM39.0422 4.5H43.9422V5.74H40.5522V7.3H43.6422V8.5H40.5522V10.26H43.9422V11.5H39.0422V4.5ZM47.548 4.5H50.548C51.3347 4.5 51.9147 4.66667 52.288 5C52.6614 5.32667 52.848 5.78333 52.848 6.37C52.848 6.73 52.758 7.04 52.578 7.3C52.4047 7.55333 52.1647 7.73667 51.858 7.85C52.258 7.94333 52.5714 8.13333 52.798 8.42C53.0314 8.7 53.148 9.06667 53.148 9.52C53.148 9.82 53.1014 10.0933 53.008 10.34C52.9147 10.58 52.768 10.7867 52.568 10.96C52.3747 11.1333 52.1214 11.2667 51.808 11.36C51.4947 11.4533 51.118 11.5 50.678 11.5H47.548V4.5ZM50.408 10.36C50.8747 10.36 51.198 10.28 51.378 10.12C51.558 9.96 51.648 9.72333 51.648 9.41C51.648 9.09667 51.558 8.85333 51.378 8.68C51.198 8.5 50.8714 8.41 50.398 8.41H49.048V10.36H50.408ZM50.248 7.39C50.6547 7.39 50.938 7.31 51.098 7.15C51.2647 6.99 51.348 6.77333 51.348 6.5C51.348 6.22 51.268 6.00667 51.108 5.86C50.948 5.71333 50.6647 5.64 50.258 5.64H49.048V7.39H50.248ZM58.0491 10.07H55.4591L54.9291 11.5H53.4691L56.0691 4.5H57.5691L60.1691 11.5H58.5891L58.0491 10.07ZM55.9191 8.83H57.5991L56.7591 6.4L55.9191 8.83ZM63.0688 7.86L60.7688 4.5H62.3688L64.2188 7.35H64.7188V4.5H66.2188V7.35H66.7188L68.6288 4.5H70.1688L67.8688 7.79L70.2688 11.5H68.6088L66.7188 8.45H66.2188V11.5H64.7188V8.45H64.2188L62.3088 11.5H60.6688L63.0688 7.86ZM71.2688 4.5H72.7688V7.28H75.7688V4.5H77.2688V11.5H75.7688V8.52H72.7688V11.5H71.2688V4.5ZM81.8664 11.62C81.4264 11.62 81.0064 11.5533 80.6064 11.42C80.2131 11.2867 79.8631 11.0767 79.5564 10.79C79.2564 10.5033 79.0164 10.1367 78.8364 9.69C78.6564 9.23667 78.5664 8.69 78.5664 8.05V7.85C78.5664 7.23667 78.6564 6.71333 78.8364 6.28C79.0164 5.84 79.2564 5.48 79.5564 5.2C79.8631 4.92 80.2131 4.71333 80.6064 4.58C81.0064 4.44667 81.4264 4.38 81.8664 4.38C82.3064 4.38 82.7231 4.44667 83.1164 4.58C83.5164 4.71333 83.8664 4.92 84.1664 5.2C84.4731 5.48 84.7164 5.84 84.8964 6.28C85.0764 6.71333 85.1664 7.23667 85.1664 7.85V8.05C85.1664 8.69 85.0764 9.23667 84.8964 9.69C84.7164 10.1367 84.4731 10.5033 84.1664 10.79C83.8664 11.0767 83.5164 11.2867 83.1164 11.42C82.7231 11.5533 82.3064 11.62 81.8664 11.62ZM81.8664 10.36C82.0931 10.36 82.3097 10.3233 82.5164 10.25C82.7297 10.17 82.9164 10.04 83.0764 9.86C83.2364 9.68 83.3631 9.44333 83.4564 9.15C83.5564 8.85667 83.6064 8.49 83.6064 8.05V7.85C83.6064 7.43667 83.5564 7.09 83.4564 6.81C83.3631 6.53 83.2364 6.30333 83.0764 6.13C82.9164 5.95667 82.7297 5.83333 82.5164 5.76C82.3097 5.68 82.0931 5.64 81.8664 5.64C81.6397 5.64 81.4197 5.68 81.2064 5.76C80.9997 5.83333 80.8164 5.95667 80.6564 6.13C80.4964 6.30333 80.3664 6.53 80.2664 6.81C80.1731 7.09 80.1264 7.43667 80.1264 7.85V8.05C80.1264 8.49 80.1731 8.85667 80.2664 9.15C80.3664 9.44333 80.4964 9.68 80.6564 9.86C80.8164 10.04 80.9997 10.17 81.2064 10.25C81.4197 10.3233 81.6397 10.36 81.8664 10.36ZM86.4641 4.5H91.3641V5.74H87.9741V7.3H91.0641V8.5H87.9741V10.26H91.3641V11.5H86.4641V4.5Z" fill="white"/>
<path d="M98 14L94 14L94 12.2L96.2 12.2L96.2 3.8L94 3.8L94 2L98 2L98 14Z" fill="white"/>
</svg>
